<svg xmlns="http://www.w3.org/2000/svg" viewBox="0 0 64 64" width="64" height="64" fill="none" stroke="#F97316" stroke-width="2" stroke-linecap="round" stroke-linejoin="round" aria-hidden="true">
  <rect x="12" y="32" width="40" height="20" rx="2" />
  <path d="M12 40c4 0 4 4 8 4s4-4 8-4 4 4 8 4 4-4 8-4 4 4 8 4" />
  <line x1="22" y1="22" x2="22" y2="32" />
  <line x1="32" y1="22" x2="32" y2="32" />
  <line x1="42" y1="22" x2="42" y2="32" />
  <path d="M22 22c0-2 2-2 2-4s-2-2-2-4" opacity="0.7" />
  <path d="M32 22c0-2 2-2 2-4s-2-2-2-4" opacity="0.7" />
  <path d="M42 22c0-2 2-2 2-4s-2-2-2-4" opacity="0.7" />
</svg>
